<svg height="12" viewBox="0 0 14 12" width="14" xmlns="http://www.w3.org/2000/svg"><g fill="none" fill-rule="evenodd"><g fill="#000" fill-rule="nonzero" transform="translate(.5 .5)"><path d="m10.286 8.12416667c-.0091667-.1045-.0226667-.26233334-.4425-.31516667-.08283333-.01033333-.19333333-.01666667-.32816667-.01883333-.40783333-.00683334-.80883333-.01033334-1.2115-.01183334-.2575-.00083333-.51083333.00166667-.78783333-.00333333-.1565-.0025-.31633333-.0045-.46483333.003-.49583334.02616667-.49433334.191-.4935.30333333.00016666.0515-.01383334.10366667-.02783334.15616667-.0235.08933333-.04783333.18166667-.01166666.27533333.01133333.0295.03083333.058.051.08633334.018.0255.03716666.051.0435.07733333.00516666.02066667.00733333.0405.00983333.05983333.00516667.04183334.01083333.08233334.03433333.12616667.043.08.11516667.21383333.45933334.24516667.53666666.04883333 1.16166666.05583333 1.756.05883333l.102.00016667c.397 0 .952-.016 1.18650003-.1545.131-.07716667.128-.15633334.1253333-.22633334l-.0006667-.03266666c.0006667-.05933334.012-.12016667.0233334-.18116667.0223333-.12133333.0455-.24683333-.008-.368-.0105-.024-.0121667-.0515-.0146667-.07983333z"/><path d="m5.79716667 5.30533333-.03583334-.03083333c-.24733333-.21216667-.51433333-.4055-.7725-.59216667-.1425-.103-.285-.20616666-.42466666-.3125-.10883334-.083-.214-.1765-.316-.26683333-.0825-.07316667-.16516667-.1465-.251-.216-.0445-.036-.08816667-.07766667-.13233334-.1195-.181-.17183333-.429-.40716667-.73416666-.16133333-.08916667.07183333-.38016667.329-.38016667.6245 0 .101.03383333.19416666.10066667.2765.16933333.20916666.45483333.38966666.7065.54883333.06466666.04083333.12616666.07983333.18166666.11683333.2745.18283334.50633334.393.781.649.07466667.0695.15633334.13016667.2355.18883334.0585.04316666.11666667.0865.17183334.13316666l.0295.02483334c.07666666.06433333.12.10216666.12.13183333 0 .01583333-.00883334.048-.05083334.111-.04216666.06316667-.135.13033333-.22483333.19533333-.0725.0525-.1475.10683334-.202.16366667-.06533333.068-.1255.14116667-.1855.2145-.06633333.081-.12916667.15733333-.199.22733333-.0985.0985-.21033333.186-.32883333.2785-.11.086-.22366667.17483334-.32916667.2755-.10883333.10416667-.21633333.205-.33466667.295-.19233333.146-.27333333.30533334-.2395.46583334.0475.22133333.38733334.53233333.521.62483333.25933334.17883333.50783334-.02716667.6895-.1775.04683334-.03883333.09216667-.0765.13533334-.10616667l.02616666-.01716666c.26483334-.1635.46933334-.3625.68583334-.57333334l.052-.0505c.079-.07666666.15833333-.1515.23733333-.22566666.35883333-.338.698-.65716667.94566667-1.099.0165-.0295.0355-.06.05516666-.09133334.0715-.11466666.1525-.2445.16616667-.39783333.00216667-.02166667.003-.04283333.003-.06383333 0-.44333334-.40616667-.79066667-.70283333-1.04433334z"/><path d="m12.8443333 2.33516667c-.129-1.244-.9676666-2.07733334-2.4558333-2.04083334-.2048333.005-.3173333.06216667-.3646667-.034-.49199997.05233334-.98566663.07233334-1.48199997.0395-.10916666-.00716666-.214-.03266666-.31083333-.07266666-.104-.0045-.207-.00333334-.30266667.00733333-.61933333.069-1.24416666.01433333-1.84816666-.05433333-.83983334-.0955-1.68533334.06616666-2.53033334.06183333-.73966666-.00383333-1.5295-.01566667-2.23116666.2785-.93566667.3925-1.02966667 1.51116667-1.06633334 2.35816667-.018.41583333.06666667.832-.01166666 1.24133333-.01216667.06383333-.02466667.12966667-.02466667.19733333 0 .144-.02433333.43683334-.024.43683334-.1145.70916666-.02533333 2.9595.069 3.67033333l.031.23566667c.05083333.30466666.10116667.58183333.20316667.88766666.01383333.04116667.034.0825.05466666.12366667.017.03383333.03416667.0675.05.11233333.0215.04316667.0555.08366667.07533334.1055.05166666.16533337.14866666.30349997.29033333.41616667.05316667.053.15583333.0988333.193.1143333.11033333.078.3155.1476667.3285.1511667.02516667.0126667.047.0251667.06733333.037.05983334.0345.11666667.0673333.20183334.0715.0625.0243333.16933333.0433333.19566666.0473333.2955.0831667.619.1235.98916667.1235.31316667 0 .62966667-.0281666.93583333-.0553333.16766667-.0148333.33516667-.0298333.49766667-.0401667.0855 0 .171.0061667.25666667.0123334.30883333.0221666.61716666.0006666.90716666-.026.20216667-.0186667 2.50633334-.0363334 2.6935-.0365.0945.0068333.18516667.0153333.27433334.0238333.181.0171667.352.0333333.5355.0333333.066 0 .133-.0021666.196-.0068333.0825 0 .16566666.0013333.24916666.0028333.418.007.86066667.0196667 1.30666667-.1586666.0896667-.0358334.1783333-.0833334.2565-.1253334.0351667-.0188333.0688333-.0368333.1-.0523333.0345-.0173333.0691667-.0381667.1071667-.0615.009.0005.018.0008333.027.0008333.177 0 .3543333-.1098333.5463333-.3405.0371667-.05199997.0856667-.11316663.1386667-.1798333.1235-.15566667.2771666-.34933333.3705-.5365.2203333-.52883333.3221666-2.6375.3298333-3.29116667l.0016667-.0135-.0006667-.071.0083333-.06666666c.0216667-.17133334.0421667-.33316667.0421667-.49366667 0-.10033333-.015-.27316667-.022-.34766667.052-.0695.0696667-.15733333.047-.24l-.0006667-.09916666c-.0136666-.09466667-.0208333-.1995-.0276666-.301l-.001-.00816667c.0138333-.35233333.033-.72866667.1036666-1.11733333.0458334-.32483334.0538334-.63316667.024-.9195zm-.8261666 1.65783333c-.0073334.044-.014.08816667-.014.12333333v.7125c0 .06766667-.0055.1355-.0111667.20633334-.0068333.084-.0138333.17216666-.0138333.26866666 0 .0325-.0131667.10966667-.0236667.16083334-.068.45666666-.1621667 2.8165-.3925 3.27333333-.0778333.18516667-.1763333.387-.2698333.5535l-.0096667.0235c-.0235.08333333-.0436667.126-.0798333.169l-.0245.029v.00933333c-.0023334.0015-.0046667.00316667-.007.00466667-.2208334.14566667-.4466667.26483333-.6608334.3785-.2143333.08483333-.4738333.0956667-.67599997.0956667-.10066666 0-.20133333-.0031667-.29916666-.00600003-.09433334-.00283334-.18633334-.00566667-.2735-.00566667-.33666667 0-.69183334.0225-1.03533334.044-.35083333.022-2.82683333.045-3.1675.0456667-.14166666-.021-.288-.0426667-.43466666-.0426667-.066 0-.12683334.0043333-.17933334.0123333-.42883333.0665-.89683333.094-1.3575.0881667-.31-.0038333-.61666666-.0228333-.90583333-.0553333-.0645-.0606667-.13533333-.11333337-.21583333-.1601667-.15316667-.1765-.27866667-.444-.33983334-.73083333-.048-.14216667-.0715-.25433334-.0965-.37316667l-.00633333-.02033333c-.00716667-.01716667-.01416667-.04016667-.0215-.063-.013-.04083334-.026-.08233334-.04483333-.11416667-.00016667-.1055-.003-.21416667-.025-.32533333-.0015-.07866667-.01816667-.15316667-.03716667-.23883334l-.01266667-.05816666v-.04683334c0-.23166666-.014-2.34666666-.02766666-2.5785-.01783334-.30683333-.0365-.62416666-.02266667-.922.02166667-.33566666.06283333-.65.10633333-.98266666l.01833334-.14066667c.01133333-.10683333.02716666-.22016667.0435-.33666667.01166666-.08266666.0235-.16716666.03416666-.25216666.22116667.02116666.42916667.0465.71466667.08183333h.325c.06666667 0 .14733333-.01966667.18016667-.02833333.22316666.0275.475.00166666.7025-.027.15433333-.01933334.30016666-.03766667.44983333-.03766667.03733333 0 .07483333.00116667.1175.004.20783333 0 .368-.007.53283333-.01433333.17216667-.0075.34933334-.01533334.5945-.01533334.80433334-.028 3.72816667-.00733333 4.68583334.05933334.23166663 0 .38750003-.01716667.58450003-.03866667.0608333-.00683333.1255-.01383333.1905-.02066667.1011666 0 .1966666.007.2891666.01366667.1991667.01433333.3925.01916667.5461667-.01433333.1595-.0235.366.01383333.542-.0455.003.0635.0055.12366666.0078333.1775-.0066666.06883333-.0131666.13766666-.0161666.191-.0275.1305-.0275.2575-.0263334.3965.011.07883333.027.1805.0413334.2725.0163333.10483333.031.19633333.0325.21616666 0 .02383334-.0058334.054-.011.08416667z"/></g><path d="m-1-2h16v16h-16z"/></g></svg>